<?xml version="1.0" encoding="UTF-8" standalone="no"?>
<!-- Created with Inkscape (http://www.inkscape.org/) -->

<svg
   version="1.1"
   id="svg116"
   width="400"
   height="248"
   viewBox="0 0 400 248"
   sodipodi:docname="DeliverOps Logo.svg"
   inkscape:version="1.2.2 (732a01da63, 2022-12-09)"
   xmlns:inkscape="http://www.inkscape.org/namespaces/inkscape"
   xmlns:sodipodi="http://sodipodi.sourceforge.net/DTD/sodipodi-0.dtd"
   xmlns:xlink="http://www.w3.org/1999/xlink"
   xmlns="http://www.w3.org/2000/svg"
   xmlns:svg="http://www.w3.org/2000/svg">
  <defs
     id="defs120" />
  <sodipodi:namedview
     id="namedview118"
     pagecolor="#ffffff"
     bordercolor="#000000"
     borderopacity="0.25"
     inkscape:showpageshadow="2"
     inkscape:pageopacity="0.0"
     inkscape:pagecheckerboard="0"
     inkscape:deskcolor="#d1d1d1"
     showgrid="false"
     inkscape:zoom="3.025"
     inkscape:cx="190.41322"
     inkscape:cy="123.96694"
     inkscape:window-width="1695"
     inkscape:window-height="1009"
     inkscape:window-x="3112"
     inkscape:window-y="0"
     inkscape:window-maximized="0"
     inkscape:current-layer="g122" />
  <g
     inkscape:groupmode="layer"
     inkscape:label="Image"
     id="g122">
    <path
       style="fill:#000000;stroke-width:1.33333"
       d="m -1.3112947,211.7135 v -29.33333 l 13.6666667,0.008 13.666667,0.008 5.328933,1.4794 5.328933,1.47938 5.517572,5.51758 5.517572,5.51757 1.479392,5.32893 1.479392,5.32894 v 4.66666 4.66667 l -1.398632,5.03644 -1.398633,5.03645 -4.249161,4.83952 -4.249162,4.83954 -5.34477,2.42808 -5.34477,2.42694 -15,0.0293 -14.9999997,0.0293 z m 37.4588577,21.98187 5.636986,-3.98187 2.514571,-4.86853 2.514572,-4.86854 0.778199,-4.79548 0.778198,-4.79546 -1.748021,-6.24332 -1.748021,-6.24332 -4.79134,-4.79135 -4.791339,-4.79133 -5.456024,-1.63467 -5.456024,-1.63467 H 12.867345 1.355372 v 26.81416 26.81418 l 14.577603,-0.49896 14.577601,-0.49896 z M 8.6642463,231.46389 7.9455024,229.59087 8.3171039,210.31885 8.6887053,191.04683 H 18.917073 29.145441 l 3.610138,3.33334 3.610136,3.33333 1.828162,4.29051 1.828162,4.2905 v 5.41899 5.41899 l -1.828162,4.2905 -1.828162,4.29051 -3.589544,3.31168 -3.589546,3.31169 -9.901817,0.50002 -9.9018179,0.50001 z m 20.8272817,-4.13247 4.530511,-3.04873 1.763426,-5.2846 1.763426,-5.28459 -0.805886,-5.16699 -0.805886,-5.167 -1.37597,-2.57102 -1.375969,-2.57102 -4.248237,-2.59033 -4.248238,-2.59033 -6.333333,-0.005 -6.333333,-0.005 v 18.66667 18.66667 h 6.469489 6.469489 z m 34.625291,11.38001 -4.571887,-2.33126 -2.699171,-3.68103 -2.699169,-3.68103 -0.467997,-8.31897 -0.467996,-8.31897 2.726866,-4.34552 2.726867,-4.34552 4.34552,-2.6495 4.34552,-2.64949 h 6 6 l 4.268601,2.60272 4.268603,2.60271 2.140437,4.13916 2.140439,4.13914 -0.40904,4.91982 -0.40904,4.91981 -13.020936,0.38187 -13.020937,0.38186 1.553876,2.95147 1.553874,2.95147 1.467062,0.97958 1.467061,0.97958 3.238669,0.0204 3.23867,0.0204 4.340218,-1.56944 4.340218,-1.56944 2.152122,1.78609 2.152122,1.78611 -0.397676,2.78333 -0.397676,2.78339 -4.666667,2.33126 -4.666667,2.33126 h -6 -6 z m 17.523709,-1.7214 4.951823,-1.37526 0.793533,-1.28398 0.793533,-1.28396 -0.730766,-1.1824 -0.730767,-1.18241 -5.547337,1.91121 -5.547339,1.91122 -3.662328,-0.80438 -3.662328,-0.80438 -2.122421,-2.34526 -2.122422,-2.34524 -0.849168,-4.24585 -0.849169,-4.24584 h 13.674456 13.674457 l -0.780181,-4.80769 -0.780181,-4.8077 -2.055552,-3.13717 -2.055552,-3.13716 -5.464739,-1.63728 -5.46474,-1.63728 -5.419864,1.91548 -5.419865,1.91547 -2.600734,3.51434 -2.600734,3.51436 -0.66698,5.91743 -0.66698,5.91743 2.736744,5.36446 2.736744,5.36446 4.410184,2.1734 4.410184,2.1734 3.333333,0.0229 3.333333,0.0229 4.951823,-1.37526 z m -18.367421,-21.40964 -0.906311,-1.46644 2.575416,-3.44949 2.575416,-3.44949 3.383568,-1.12786 3.383569,-1.12785 3.559214,1.35321 3.559214,1.3532 1.318962,3.46914 1.318961,3.46913 -0.754895,1.22145 -0.754894,1.22144 h -9.175955 -9.175955 z m 16.748932,-2.26689 v -1.06667 l -1.6,-1.6 -1.6,-1.6 h -3.466667 -3.466667 l -1.6,1.6 -1.6,1.6 v 1.06667 1.06667 h 6.666667 6.666667 z m 17.333333,-2.26667 V 180.8935 l 5.666668,0.41 5.66667,0.41 v 29.33333 29.33334 l -5.66667,0.41 -5.666668,0.41 z m 9.333338,0 V 183.7135 h -3.33334 -3.33333 v 27.33333 27.33334 h 3.33333 3.33334 z m 9.33333,8.66667 v -21.33333 h 6 6 v 21.33333 21.33333 h -6 -6 z m 9.33333,0 v -18.66667 h -3.33333 -3.33333 v 18.66667 18.66667 h 3.33333 3.33333 z m 14.12956,2.38916 -7.46289,-19.08483 v -2.31884 -2.31882 h 5.17008 5.17007 l 1.29202,1.66666 1.29203,1.66667 3.80744,11.11136 3.80744,11.11136 4.06379,-11.11136 4.0638,-11.11136 1.07869,-1.66667 1.07868,-1.66666 h 5.25465 5.25464 l -0.11186,2.33333 -0.11187,2.33333 -7.55477,18.66667 -7.55479,18.66667 -5.53711,0.40366 -5.5371,0.40367 -7.4629,-19.08484 z m 23.49732,-2.38916 7.45164,-18.66667 h -3.11012 -3.11013 l -2.60405,7 -2.60406,7 -2.47137,7 -2.47137,7 h -1.53844 -1.53844 l -4.31939,-12.531 -4.3194,-12.53098 -0.98,-1.58567 -0.97999,-1.58565 -2.77664,0.44998 -2.77664,0.44999 6.05171,15.33333 6.05172,15.33334 1.17605,3 1.17604,3 h 3.12062 3.12062 z m 21.13456,18.99793 -4.57188,-2.33126 -2.69917,-3.68103 -2.69917,-3.68103 -0.46799,-8.31897 -0.468,-8.31897 2.72687,-4.34552 2.72686,-4.34552 4.34552,-2.6495 4.34552,-2.64949 h 6 6 l 4.2686,2.60272 4.2686,2.60271 2.14044,4.13916 2.14044,4.13914 -0.40904,4.91982 -0.40904,4.91981 -13.02093,0.38187 -13.02093,0.38186 1.55386,2.95147 1.55388,2.95147 1.46706,0.97958 1.46706,0.97958 3.23867,0.0204 3.23867,0.0204 4.34022,-1.56944 4.34022,-1.56944 2.15212,1.78609 2.15212,1.78611 -0.39767,2.78333 -0.39768,2.78339 -4.66667,2.33126 -4.66666,2.33126 h -6 -6 z m 17.52372,-1.7214 4.95182,-1.37526 0.79353,-1.28398 0.79353,-1.28396 -0.73076,-1.1824 -0.73077,-1.18241 -5.54733,1.91121 -5.54734,1.91122 -3.66233,-0.80438 -3.66233,-0.80438 -2.12242,-2.34526 -2.12242,-2.34524 -0.84916,-4.24585 -0.84918,-4.24584 h 13.67446 13.67445 l -0.78017,-4.80769 -0.78019,-4.8077 -2.05555,-3.13717 -2.05556,-3.13716 -5.46473,-1.63728 -5.46473,-1.63728 -5.41987,1.91548 -5.41987,1.91547 -2.60073,3.51434 -2.60073,3.51436 -0.66699,5.91743 -0.66697,5.91743 2.73674,5.36446 2.73674,5.36446 4.41018,2.1734 4.41019,2.1734 3.33333,0.0229 3.33334,0.0229 4.95182,-1.37526 z m -18.36742,-21.40964 -0.90631,-1.46644 2.57541,-3.44949 2.57542,-3.44949 3.38357,-1.12786 3.38356,-1.12785 3.55923,1.35321 3.55921,1.3532 1.31896,3.46914 1.31896,3.46913 -0.75489,1.22145 -0.7549,1.22144 h -9.17596 -9.17596 z m 16.74893,-2.26689 v -1.06667 l -1.6,-1.6 -1.6,-1.6 h -3.46667 -3.46666 l -1.6,1.6 -1.6,1.6 v 1.06667 1.06667 h 6.66666 6.66667 z m 16.6162,26.08261 -0.69273,-1.80524 0.3716,-19.27202 0.3716,-19.27202 5.01072,-0.41445 5.0107,-0.41447 0.79126,2.06196 0.79125,2.06198 2.82804,-1.98084 2.82804,-1.98084 h 4.37 4.36999 v 6 6 h -4.46002 -4.46001 l -2.15281,2.37882 -2.1528,2.37883 -0.38719,12.62117 -0.38717,12.62118 -5.67887,0.41058 -5.67887,0.4106 z m 10.05047,-13.68261 v -12.66667 l 2.66666,-2.66666 2.66667,-2.66667 h 4 4 v -3.33333 -3.33334 h -2.72727 -2.72728 l -3.30302,3.30303 -3.30303,3.30304 -0.96971,0.10893 -0.96969,0.10894 -0.72513,-3.07168 -0.72512,-3.0717 -2.27488,-0.43809 -2.27487,-0.43811 v 18.76444 18.76443 h 3.33333 3.33334 v -12.66667 z m 35.33333,13.42767 -5.33333,-1.95188 -4.75895,-5.3044 -4.75893,-5.3044 -1.5744,-5.25486 -1.57439,-5.25485 v -4.35728 -4.35728 l 1.6302,-5.44111 1.63019,-5.44109 5.36981,-5.57431 5.3698,-5.5743 5.33333,-1.46519 5.33334,-1.46519 5.4677,-0.008 5.4677,-0.008 4.5323,1.51747 4.5323,1.51748 4.34564,3.22644 4.34564,3.22643 2.93837,5.58942 2.93837,5.58943 0.0389,8.66667 0.0389,8.66666 -3.32293,5.9408 -3.32292,5.94079 -5.54852,3.89545 -5.54852,3.89544 -9.11815,0.5202 -9.11815,0.5202 -5.33333,-1.95188 z m 24.20684,-3.98742 6.87349,-3.20036 3.59318,-6.13126 3.59316,-6.13128 v -7.97735 -7.97735 l -3.33592,-5.69232 -3.33594,-5.69233 -5.32333,-2.99188 -5.32335,-2.99189 -5.9741,-0.81884 -5.97411,-0.81884 -5.16663,1.6768 -5.16662,1.6768 -3.69686,2.59388 -3.69685,2.59388 -2.89717,5.55437 -2.89718,5.55439 v 7.33333 7.33333 l 2.89718,5.55439 2.89717,5.55437 3.69685,2.58884 3.69686,2.58884 4,1.41819 4,1.41819 5.33333,0.0923 5.33333,0.0923 6.87351,-3.20036 z m -22.05195,-5.64797 -4.51177,-2.2982 -2.45895,-5.41371 -2.45894,-5.4137 v -4.66667 -4.66667 l 2.46825,-5.43448 2.46824,-5.43448 5.02347,-2.3838 5.02346,-2.38378 6.54135,0.62853 6.54133,0.62855 3.95894,3.79289 3.95893,3.79289 1.40389,5.21367 1.4039,5.21368 -0.90624,5.36396 -0.90623,5.36396 -4.29925,4.69129 -4.29924,4.6913 -7.21968,0.50648 -7.21968,0.50649 z m 18.09335,-3.05925 4.24824,-2.59034 1.57227,-2.93782 1.57228,-2.93782 v -6.26705 -6.26705 l -1.57228,-2.93782 -1.57227,-2.93782 -4.24824,-2.59034 -4.24824,-2.59033 h -4 -4 l -4.41357,2.69087 -4.41356,2.69088 -2.05043,4.90736 -2.05043,4.90736 0.76252,4.69885 0.76252,4.69884 2.49667,3.3646 2.49668,3.3646 3.2048,1.64701 3.2048,1.64702 4,0.0147 4,0.0147 z m 28.41843,-14.80388 v -29.55028 l 15.0599,0.47806 15.05991,0.47807 3.58819,2.35107 3.5882,2.35106 2.30428,3.51679 2.30428,3.51679 v 6.85757 6.85757 l -2.93519,4.12208 -2.93519,4.1221 -5.3775,2.15165 -5.37751,2.15165 h -5.91461 -5.9146 l -0.39175,9.66667 -0.39175,9.66667 -6.33333,0.40638 -6.33333,0.40639 z m 9.60825,17.07085 0.39175,-9.66667 8.70341,-0.74941 8.7034,-0.74943 4.18297,-2.47094 4.18299,-2.47094 1.44695,-3.1757 1.44694,-3.17572 v -5.35824 -5.35826 l -1.4409,-2.69237 -1.44091,-2.69236 -5.55909,-2.52403 -5.5591,-2.52404 -11,-0.0293 -11,-0.0292 v 26.66667 26.66667 h 3.27492 3.27492 z m 1.39175,-15.81387 -1.66667,-1.71946 v -9.57008 -9.57007 l 2.01859,-1.67528 2.01858,-1.67528 6.31475,0.83525 6.31475,0.83524 3.14325,3.58434 3.14324,3.58432 -0.70928,5.28812 -0.70928,5.2881 -2.50245,2.50246 -2.50247,2.50245 -6.59817,0.75468 -6.59818,0.75469 z m 15.01182,-4.36324 2.52151,-1.84377 v -4.97912 -4.97912 l -2.52151,-1.84377 -2.5215,-1.84378 h -5.0785 -5.07849 v 8.66667 8.66667 h 5.07849 5.0785 z m 28.65484,31.5765 -2,-0.72342 -4.33333,-1.9899 -4.33333,-1.98991 v -2.97476 -2.97476 l 2.68781,-2.43244 2.6878,-2.43243 5.79157,2.89244 5.79156,2.89246 h 2.59912 2.59912 l 2.38147,-1.74138 2.38147,-1.74137 -0.45996,-3.21929 -0.45996,-3.21931 -9.8997,-4.04336 -9.89969,-4.04335 -2.42661,-3.99597 -2.42663,-3.99597 -0.003,-4.66667 -0.003,-4.66667 2.50426,-4.10672 2.50427,-4.1067 4.69225,-2.22663 4.69226,-2.22661 5.79849,0.0293 5.79849,0.0293 5.66667,2.5722 5.66667,2.5722 v 1.44543 1.44544 l -2.15335,3.28641 -2.15335,3.28643 h -1.6418 -1.6418 l -4.26738,-2.12885 -4.26739,-2.12884 -3.32789,0.83524 -3.3279,0.83525 -0.82177,2.14149 -0.82176,2.14151 1.295,2.05301 1.29501,2.05302 6.75716,2.29682 6.75716,2.29684 3.426,2.2448 3.426,2.2448 1.53278,4.64436 1.53278,4.64436 -0.8338,4.4445 -0.83378,4.4445 -2.8555,3.63016 -2.85549,3.63018 -4.39997,1.83842 -4.39998,1.83843 -5.70949,-0.1052 -5.70949,-0.1052 -2,-0.72343 z m 16.72042,-3.84759 4.45676,-2.11488 2.25989,-3.44904 2.25991,-3.44904 v -5.15661 -5.15662 l -2.89106,-3.07737 -2.89104,-3.07739 -7.36156,-2.50226 -7.36156,-2.50227 -2.59588,-2.41844 -2.59588,-2.41843 v -2.61473 -2.61472 l 2.66667,-2.66667 2.66667,-2.66666 h 4.73288 4.73288 l 3.93378,2.03424 3.93379,2.03424 v -0.59186 -0.59186 l 0.81211,-2.11631 0.8121,-2.11632 -4.76928,-1.99273 -4.76928,-1.99274 h -4.13048 -4.13048 l -2.91234,1.49995 -2.91235,1.49996 -2.97959,2.71328 -2.97958,2.71329 -0.80508,4.29146 -0.80508,4.29145 2.09902,4.05908 2.09904,4.05908 7.40232,2.76956 7.40232,2.76956 h 0.84499 0.845 l 2.43832,2.20665 2.43832,2.20666 v 4.3844 4.38441 l -2.96335,2.07561 -2.96333,2.0756 -4.70333,-0.005 -4.70332,-0.005 -4.30586,-2.62538 -4.30585,-2.62537 -1.4268,2.66601 -1.4268,2.666 5.73265,2.60174 5.73266,2.60174 4.46516,0.0293 4.46516,0.0293 z m -265.29185,-42.64704 -2.09523,-2.09524 v -3.14285 -3.14286 l 2.09523,-2.09524 2.09524,-2.09524 h 3.03145 3.03144 l 2.20665,2.43832 2.20665,2.43832 v 2.68836 2.68836 l -2.43832,2.20666 -2.43832,2.20665 h -2.79977 -2.79978 z m 9.07259,-3.54641 1.45364,-2.30831 -2.20734,-2.20735 -2.20735,-2.20734 -2.13363,0.81874 -2.13363,0.81876 -0.78559,2.04722 -0.78559,2.04722 1.69322,2.0402 1.69322,2.04022 1.9797,-0.39052 1.9797,-0.39052 z m 73.09784,-22.25322 -4.40098,-1.12934 -0.85815,-0.85815 -0.85815,-0.85815 1.71064,-8.29641 1.71064,-8.29641 1.37843,-1.66667 1.37843,-1.66667 6.83673,-0.008 6.83675,-0.008 4.8235,-1.33984 4.82351,-1.33984 4.47809,-3.01778 4.47811,-3.01779 3.03172,-4.49879 3.03173,-4.49878 v -0.90523 -0.90523 l -4.1895,0.61488 -4.18951,0.61489 0.73364,-3.17914 0.73364,-3.17915 3.02987,-17.0612 3.02985,-17.061193 2.31773,0.394531 2.31775,0.39453 13.4416,11.750528 13.4416,11.750534 v 1.70211 1.70212 l -3.14647,1.43363 -3.14648,1.43363 -0.89148,6.72034 -0.89149,6.72034 -1.90289,5.39338 -1.9029,5.39339 h 3.18739 3.18739 l 3.55789,-1.35271 3.55789,-1.3527 5.71582,-5.6473 5.71581,-5.64729 5.42813,-3.61724 5.42814,-3.61724 3.53522,-5.3421 3.53524,-5.3421 0.67902,-8.45907 0.67901,-8.459069 -2.09451,-4.050333 -2.0945,-4.050332 -5.00038,-4.390384 -5.00037,-4.390383 -6.06773,-2.65792 -6.06775,-2.65792 -4.55255,-4.642584 -4.55254,-4.642584 -4.40463,-1.840371 -4.40463,-1.839238 h -5.90017 -5.90017 l -0.76748,2 -0.76747,2 h -9.37519 -9.37517 v -4.699668 -4.699668 l -3.49552,-1.328992 -3.49551,-1.328994 -1.73928,1.443474 -1.73928,1.443472 -5.76521,-0.414812 -5.7652,-0.414812 v -7.333334 -7.333333 l 4.94355,-0.410455 4.94356,-0.410456 2.6422,1.414062 2.64218,1.414061 0.76736,-1.241613 0.76736,-1.241614 -3.01977,-0.42866 -3.01977,-0.428658 v -4 -4 l 5.15636,-0.423142 5.15636,-0.423142 -0.54808,4.694649 -0.54807,4.694651 6.05837,0.395158 6.05839,0.395159 0.42607,3 0.42606,3 0.2406,-0.02008 0.2406,-0.02008 5.33334,-1.921401 5.33333,-1.9214 7.91237,-0.05852 7.91236,-0.05852 5.74676,2.78196 5.74676,2.78196 7.24378,8.004617 7.24376,8.004619 5.76377,1.289346 5.76377,1.289347 5.72288,3.346559 5.7229,3.34656 3.9787,5.492448 3.97871,5.492448 2.12872,7.322554 2.12873,7.322554 -0.6888,7.596094 -0.68878,7.5961 -2.43064,5.1222 -2.43066,5.1222 -4.99868,4.99868 -4.99868,4.99869 -6.53173,3.30988 -6.53173,3.30988 -0.8531,4.26541 -0.85308,4.26541 -6.32737,6.31968 -6.32739,6.31968 -5.33333,1.47646 -5.33333,1.47646 -7.33334,-0.0399 -7.33333,-0.0399 -3.21459,-1.78117 -3.21458,-1.78118 -4.2086,2.48314 -4.20862,2.48313 -7.91013,2.73443 -7.91015,2.73442 -10,0.56143 -10,0.56144 -4.401,-1.12935 z m 30.88067,-5.37413 7.64417,-2.62997 5.1957,-2.92015 5.19568,-2.92013 3.36214,2.20296 3.36215,2.20296 6.38025,-0.008 6.38024,-0.008 5.16878,-1.43518 5.16878,-1.43517 5.2194,-4.89073 5.21942,-4.89072 1.77734,-5.33334 1.77735,-5.33333 6.92089,-3.79753 6.9209,-3.79755 4.33125,-4.33126 4.33127,-4.33126 2.5521,-5.20453 2.5521,-5.20454 0.0303,-9.427605 0.0303,-9.427607 -4,-7.785258 -4,-7.785259 -6.34537,-4.361771 -6.34539,-4.361772 -7.32128,-1.519893 -7.3214,-1.518761 v -1.094598 -1.094598 l -6.02943,-6.706176 -6.02942,-6.706176 -5.72488,-2.771362 -5.72487,-2.771362 -6.57903,0.05852 -6.57904,0.05852 -5.33333,1.9214 -5.33333,1.921401 -2.33334,0.02008 -2.33333,0.02008 v -3.333334 -3.333333 h -6 -6 v 4.573932 4.573932 l 3,0.426068 3,0.426068 0.41383,5 0.41381,5 h 7.1102 7.11019 l 0.76748,-2 0.76746,-2 h 7.418 7.41802 l 4.43062,1.851237 4.43064,1.851238 4.6683,4.66829 4.66828,4.668291 6.02146,2.663576 6.02146,2.663576 5.58977,5.050028 5.58979,5.050028 2.07344,4.009607 2.07345,4.009605 -0.63145,9.839248 -0.63144,9.83925 -3.89556,5.5427 -3.89556,5.54271 -5.9661,4.3179 -5.96609,4.3179 -4.66667,4.60455 -4.66666,4.60455 -4.26712,2.11952 -4.26712,2.11953 h -5.39955 -5.39955 v -1.83236 -1.83237 l 1.96204,-5.56102 1.96204,-5.56102 0.88295,-6.65591 0.88293,-6.6559 2.82168,-2.03476 2.8217,-2.03476 -4.80199,-4.24929 -4.80197,-4.24928 -8.05518,-7.008173 -8.05517,-7.008178 -2.98,16.341511 -2.98,16.34151 -0.56247,0.97992 -0.56245,0.97992 4.06628,-0.81325 4.06628,-0.81326 v 2.89955 2.89955 l -1.88096,3.60045 -1.88097,3.60045 -3.7857,3.51446 -3.7857,3.51445 -4.62034,2.33487 -4.62033,2.33486 -9.96307,0.81735 -9.96306,0.81735 -1.7295,6.66666 -1.72948,6.66667 0.56747,1.57051 0.56748,1.5705 3.74541,0.64246 3.74542,0.64246 8.75108,-0.53248 8.75108,-0.53246 z m -15.813,-118.731002 v -4.666666 l -5,-0.41382 -5,-0.413822 v 5.494308 5.494308 l 5,-0.413821 5,-0.41382 z m 6,-12.666666 v -2 h -2.66667 -2.66666 v 2 2 h 2.66666 2.66667 z M 158.68871,161.7135 v -4.66667 l -5,-0.15921 -5,-0.1592 -7.39878,0.26645 -7.39878,0.26646 -8.47512,-1.53683 -8.47513,-1.53684 -7.21547,-2.69965 -7.21547,-2.69966 -8.687144,-8.12638 -8.687144,-8.1264 -4.019745,-7.96308 -4.019746,-7.96307 -1.855972,-6.11463 -1.855972,-6.11462 -0.01443,-8.859558 -0.01443,-8.859554 2.680913,-8.679788 2.680914,-8.679788 5.797,-7.874666 5.797,-7.874668 5.077342,-4.185175 5.077344,-4.185175 7.44475,-3.922544 7.44473,-3.922544 7.06563,-1.478273 7.06563,-1.478272 6.2677,0.03181 6.26771,0.03181 4.90525,1.139741 4.90526,1.139741 1.58878,-3.835677 1.58879,-3.835676 8.40399,-7.861513 8.40398,-7.861514 7.10198,-2.470413 7.10197,-2.4704119 11.62337,3.76e-4 11.62338,3.773e-4 2.03525,2.0352556 2.03525,2.035258 -1.99196,10.411044 -1.99196,10.411042 v 0.390338 0.390336 l -12.47214,0.545489 -12.47214,0.545488 -6.51565,3.353075 -6.51567,3.353074 -3.62276,5.260476 -3.62277,5.260476 -0.87787,3.708754 -0.87788,3.708753 3.52462,-1.605919 3.5246,-1.60592 1.1356,1.2305 1.13561,1.230499 -2.40104,18 -2.40104,18 -0.104,0.333333 -0.10413,0.333324 h -1.05018 -1.05018 l -13.91023,-10.071516 -13.91023,-10.071517 -0.69773,-0.697736 -0.69773,-0.697736 4.48238,-3.658349 4.4824,-3.65835 -0.95452,-5.649728 -0.9545,-5.649728 -4.20308,0.874536 -4.20307,0.874536 -7.6824,3.391939 -7.6824,3.391937 -4.80116,5.314316 -4.80117,5.314316 -2.68588,6.071898 -2.68589,6.071897 -0.0762,8.101529 -0.0762,8.101525 3.42589,7.48313 3.42589,7.48313 4.93122,5.45827 4.93123,5.45827 8.10151,4.04839 8.10152,4.04837 h 2.4537 2.45371 v -3.39425 -3.39425 l 9,0.39425 9,0.39425 0.41781,4.33334 0.41782,4.33333 h 1.91552 1.91552 v -4.78987 -4.78988 l 7,0.28866 7,0.28864 3,-0.16544 2.99999,-0.16544 v -2.57811 -2.5781 l -3.66667,-0.4219 -3.66666,-0.42189 v -3.18802 -3.18802 l 2.33333,-1.47183 2.33333,-1.47183 2.33334,1.49547 2.33333,1.49546 -0.0312,3.22245 -0.0312,3.22244 3.57927,-0.52532 3.57926,-0.52533 1.5653,2.92479 1.56529,2.92478 -0.80544,3.20914 -0.80544,3.20915 h -2.48576 -2.48576 l -0.74497,2.84877 -0.74496,2.84878 -6.07722,-0.68499 -6.0772,-0.685 v 1.16956 1.16955 h -4.66666 -4.66667 v 4.66666 4.66667 h 1.90727 1.90726 l 0.42607,-3 0.42607,-3 5.01336,-0.41461 5.01334,-0.41462 4.06044,2.89128 4.06043,2.89128 -0.40712,4.19 -0.40712,4.19 -6.33333,0.40639 -6.33334,0.40639 v -1.40639 -1.40639 h -1.33333 -1.33333 v 4.66667 4.66667 h -7.33334 -7.33333 v -4.66667 z m 12,-1.91015 v -3.91014 l 2.80088,-0.88898 2.80089,-0.88896 1.46577,1.46578 1.46579,1.46578 h 3.06667 3.06666 v -3.00785 -3.00785 l -4.03738,-1.78712 -4.03739,-1.78712 -1.96261,0.75313 -1.96262,0.75312 v 2.70852 2.70851 h -4.66666 -4.66667 v -5.33334 -5.33333 h -2.4 -2.4 l -1.6,-1.6 -1.6,-1.6 v -3.73333 -3.73334 h -6 -6 v 4.10595 4.10593 l -4.33333,-0.88294 -4.33334,-0.88294 -8,-3.6824 -8,-3.6824 -5.62374,-5.65453 -5.62373,-5.65454 -3.63853,-7.55273 -3.63852,-7.55273 -0.0239,-10.000002 -0.0239,-10 3.43378,-7.422105 3.43378,-7.422105 5.05679,-4.911096 5.05679,-4.911095 7.2838,-3.445785 7.28379,-3.445787 7.17847,-0.740884 7.17848,-0.740884 v 8.544381 8.544382 l -3.43144,2.082072 -3.43143,2.082072 11.32306,8.22675 11.32306,8.226751 h 1.25758 1.25758 l 0.92203,-9 0.92204,-9 0.77707,-5.669661 0.77706,-5.669663 -4.18164,0.836329 -4.18164,0.836328 0.0293,-3.833333 0.0293,-3.833333 2.42808,-5.34477 2.42808,-5.34477 4.85718,-4.264663 4.85718,-4.264661 6.92746,-2.057235 6.92735,-2.057235 h 8.9968 8.9968 l 1.52408,-7.341417 1.52407,-7.341417 -0.43659,-2.267032 -0.43659,-2.267032 -5.32629,-1.108638 -5.32628,-1.108637 -8.14568,1.266203 -8.14569,1.266202 -6.57451,3.331558 -6.57451,3.331557 -5.50005,5.966848 -5.50004,5.966847 -2.22224,4.297318 -2.22223,4.297318 -4.22418,-0.863966 -4.2242,-0.863964 -5.33334,-0.746601 -5.33333,-0.7466 -8,1.466048 -8,1.466047 -8.20965,4.022338 -8.20965,4.022339 -7.605504,7.484959 -7.605507,7.484958 -4.58065,9.645548 -4.580651,9.645548 -0.775468,9.24979 -0.775469,9.24979 2.288868,7.87343 2.288868,7.87343 3.327918,6.56733 3.327919,6.56733 6.199484,6.62776 6.199485,6.62774 7.388647,3.72978 7.38864,3.72977 5.95984,1.60483 5.95984,1.60481 16.20911,0.36777 16.20909,0.36778 1.46409,0.90485 1.46408,0.90485 v 3.92132 3.92131 h 4.66667 4.66667 z m 2.66666,-23.42318 v -3.33334 h -3.33333 -3.33333 v 3.33334 3.33333 h 3.33333 3.33333 z m 13.33334,-0.66667 v -2.66667 h 2.66666 2.66667 v -2.66666 -2.66667 h -2.51116 -2.51116 l -0.69735,2.66667 -0.69734,2.66666 h -2.12483 -2.12483 v 2.66667 2.66667 h 2.66667 2.66667 z m -2.66667,-14.66667 v -1.33333 h -2 -2 v 1.33333 1.33334 h 2 2 z m 11.23529,3.41741 -0.85772,-3.41741 h -3.28152 -3.28152 l 0.42607,-3 0.42607,-3 h 3.33333 3.33333 l -0.12973,2.00072 -0.12973,2.00072 4.12974,-7.2e-4 4.12972,-7.2e-4 v 4 4 l -3.62016,0.41741 -3.62016,0.41741 z m 6.09804,-2.08407 v -1.33334 h -2 -2 v 1.33334 1.33333 h 2 2 z m -9.33333,-4.66667 v -0.66667 h -0.66667 -0.66666 v 0.66667 0.66667 h 0.66666 0.66667 z m 12,-51.333335 v -4.177127 l 3.66667,0.421898 3.66666,0.421896 v 3.333333 3.333333 l -3.66666,0.421896 -3.66667,0.421898 z m 5.33333,0 v -1.333333 h -1.33333 -1.33333 v 1.333333 1.333333 h 1.33333 1.33333 z m -16.85116,-7.333333 -0.76748,-2 0.80175,-2.089295 0.80173,-2.089295 3.67424,0.422628 3.67426,0.422628 0.42189,3.666667 0.42189,3.666667 h -4.1304 -4.13041 z m 6.1845,-2 v -1.333334 h -2 -2 v 1.333334 1.333333 h 2 2 z m 13.84977,2.089294 -0.80175,-2.089294 0.76748,-2 0.76747,-2 h 4.13041 4.1304 l -0.42189,3.666666 -0.42189,3.666667 -3.67426,0.422628 -3.67424,0.422628 z m 6.15023,-2.089294 v -1.333334 h -2.0787 -2.07868 l 0.82404,1.333334 0.82404,1.333333 h 1.25466 1.25464 z m -14.66667,-1.240599 v -2.759401 h 3.43109 3.43111 l -0.44472,2.333333 -0.44472,2.333333 -2.98639,0.426068 -2.98637,0.426068 z m 20.59037,-28.588664 -0.83116,-3.311613 0.8995,-2.834066 0.8995,-2.834065 5.55423,0.404504 5.55423,0.404503 v 5.333333 5.333333 l -5.62256,0.407843 -5.62258,0.407841 z m 9.8357,-2.490449 -0.42607,-2.98638 -2.47496,-0.471995 -2.47496,-0.471993 -1.36875,1.368749 -1.36876,1.368751 0.80187,2.089624 0.80187,2.089622 h 3.46792 3.4679 z"
       id="path194" />
  </g>
</svg>
